<svg width="155.28mm" height="35.867mm" version="1.1" viewBox="0 0 155.28 35.867" xmlns="http://www.w3.org/2000/svg"><g transform="matrix(1.0011 0 0 .99999 -16.692 -429.61)" stroke-width=".3881" aria-label="DepBuilder"><path d="m56.791 440.74v15.804h4.7865c5.8025 0 7.699-4.2898 7.699-7.9022 0-3.9285-2.0772-7.9022-7.6087-7.9022zm5.1703 13.253h-2.461v-10.702h2.7093c3.0028 0 4.2672 2.6868 4.2672 5.3509 0 2.4836-1.1515 5.3509-4.5156 5.3509z"/><path d="m76.939 456.82c1.8514 0 3.206-0.72249 4.1092-1.8062l-1.6708-1.7159c-0.6096 0.8128-1.4224 1.1966-2.4384 1.1966-1.3772 0-2.619-1.016-2.7093-2.7093h7.6539c0.06773-0.51929 0.09031-1.1515 0.09031-1.6256 0-3.7028-2.2578-5.4187-5.0348-5.4187-3.2286 0-5.3284 2.2578-5.3284 6.0283 0 3.7931 2.0546 6.0508 5.3284 6.0508zm-2.6868-7.2249c0.13547-1.8062 1.2644-2.5287 2.6868-2.5287 1.1966 0 2.3029 0.76764 2.4158 2.5287z"/><path d="m89.96 456.82c2.7996 0 4.7639-2.2352 4.7639-6.0283 0-3.8608-1.874-6.0508-4.7413-6.0508-1.2418 0-2.0772 0.47413-2.6416 1.1515v-0.88054h-2.6416v16.075l2.6416-1.2192v-4.2446c0.54187 0.67733 1.3772 1.1966 2.619 1.1966zm-0.38382-2.5287c-1.0612 0-1.8288-0.54187-2.2352-1.1289v-4.7865c0.47413-0.69991 1.1966-1.1289 2.2352-1.1289 1.6256 0 2.5061 1.445 2.5061 3.5447 0 2.2578-0.90311 3.4996-2.5061 3.4996z"/><path d="m97.757 440.74v15.804h6.7959c3.906 0 5.2832-2.4836 5.2832-4.6736 0-1.4224-0.72248-2.9803-2.5964-3.6576 1.3998-0.67734 2.032-1.9191 2.032-3.2512 0-2.1449-1.2418-4.222-5.0574-4.222zm6.096 6.3669h-3.3867v-3.8608h3.8156c1.874 0 2.2578 0.99342 2.2578 1.9191 0 1.1515-0.88053 1.9417-2.6868 1.9417zm0.85796 6.9314h-4.2446v-4.4252h3.5899c2.461 0 3.0254 1.1515 3.0254 2.3255 0 0.97084-0.51929 2.0997-2.3707 2.0997z"/><path d="m119.9 456.55h2.6416v-11.537h-2.6416v6.6379c0 1.9191-0.92569 2.6416-2.3255 2.6416-1.3547 0-2.1675-0.79022-2.1675-2.6868v-6.5927h-2.6416v7.0668c0 3.5221 1.9191 4.7413 4.1092 4.7413 1.2869 0 2.3029-0.45156 3.0254-1.3772z"/><path d="m127.28 443.43c0.88054 0 1.5579-0.69991 1.5579-1.5804 0-0.85795-0.67733-1.5579-1.5579-1.5579-0.88053 0-1.5804 0.69991-1.5804 1.5579 0 0.88054 0.69991 1.5804 1.5804 1.5804zm-1.3321 13.118h2.6416v-11.537h-2.6416z"/><path d="m132.13 456.55h2.6416v-16.301l-2.6416 1.2418z"/><path d="m142.5 456.82c1.2192 0 2.0546-0.4064 2.5964-1.1063v0.83538h2.6416v-16.301l-2.6416 1.1966v4.3801c-0.54187-0.63218-1.3772-1.0837-2.5964-1.0837-2.7771 0-4.7865 2.2578-4.7865 6.0283 0 3.8382 1.874 6.0508 4.7865 6.0508zm0.4064-2.5287c-1.6256 0-2.5513-1.4224-2.5513-3.5221 0-2.2804 0.92569-3.5221 2.5513-3.5221 1.1063 0 1.8514 0.6096 2.19 1.1063v4.8316c-0.47414 0.72249-1.1966 1.1063-2.19 1.1063z"/><path d="m155.87 456.82c1.8514 0 3.206-0.72249 4.1092-1.8062l-1.6708-1.7159c-0.6096 0.8128-1.4224 1.1966-2.4384 1.1966-1.3772 0-2.619-1.016-2.7093-2.7093h7.6539c0.0677-0.51929 0.0903-1.1515 0.0903-1.6256 0-3.7028-2.2578-5.4187-5.0348-5.4187-3.2286 0-5.3284 2.2578-5.3284 6.0283 0 3.7931 2.0546 6.0508 5.3284 6.0508zm-2.6868-7.2249c0.13547-1.8062 1.2644-2.5287 2.6868-2.5287 1.1966 0 2.3029 0.76764 2.4158 2.5287z"/><path d="m163.63 456.55h2.6416v-6.4572c0-2.19 1.1515-2.7545 2.1675-2.7545 0.88053 0 1.4901 0.27094 1.9643 0.6096l0.38383-2.4158c-0.58703-0.49671-1.2869-0.79022-2.1449-0.79022-1.1515 0-1.9191 0.51929-2.3707 1.4676v-1.1966h-2.6416z"/></g><rect x="1" y="1" width="33.867" height="33.867" fill="none" opacity=".897" style="paint-order:normal"/><path d="m7.515 13.723c-1.8073 0.27729-2.3622 2.8102-2.7717 4.582-0.63567 2.7504-0.26047 6.3831 1.2395 8.7214 2.3241 3.6229 6.3993 6.047 10.708 6.3345 3.4169 0.22797 6.8501-0.53477 9.4453-2.7075 2.0758-1.7378 3.6245-3.7154 4.4236-6.3103 0.71254-2.3138 1.3914-5.2725 0.40837-7.4868-0.85204-1.9192-2.3923-3.2884-4.5465-4.3818-2.1543-1.0935-5.5626-2.0445-9.0649-1.9541-4.6254 0.11942-6.4322 2.6795-9.8417 3.2026z" stroke="#000" stroke-linecap="round" stroke-linejoin="round" stroke-width=".81799" style="paint-order:normal"/><path d="m6.3469 19.168c-0.93831 1.9935-0.96153 4.7202 0.18847 6.6002 2.7309 4.4644 7.4292 6.4522 11.133 6.4522 5.2917 0 10.086-3.2469 11.82-7.9634 0.68716-1.9732 0.98531-4.371 0.09648-6.2634-0.73755-1.5703-2.4165-2.7016-4.0611-3.2786-1.4342-0.50331-3.0579-0.20308-4.5628 0.0151-1.1094 0.16093-2.1077 0.86887-3.2263 0.94468-1.9547 0.1326-3.9178-1.3719-5.8118-0.8741-2.2883 0.60146-4.5735 2.2372-5.5761 4.3673z" fill="#fff" stroke-width="0" style="paint-order:normal"/><g stroke="#000"><g stroke-linejoin="round"><path d="m15.659 26.952c-0.12766-0.71278 0.64123-0.94319 1.7899-0.94664 1.1485-3e-3 2.3909 0.25489 2.2392 0.96311-0.50966 2.3797-3.8441 1.9045-4.029-0.0164z" stroke-linecap="round" stroke-width="1.3272" style="paint-order:normal"/><path d="m7.4189 27.608c1.3515-2.157 2.752-3.5215 4.6596-4.3851 1.3401-0.3723 3.0988 0.0662 1.8692 1.5744-1.8222 1.9605-3.2325 2.66-3.9614 5.6015-1.2085-0.8053-2.5253-2.0371-2.5674-2.7908z" stroke-linecap="round" stroke-width="1.4898" style="paint-order:normal"/><path d="m22.641 23.17c-1.6279-0.40079-2.885 0.82191-0.92092 2.1044 0.57862 0.36445 1.1967 0.80885 1.9454 1.2914 1.6322 1.1239 1.9826 1.7749 2.6196 3.1348 1.2983-0.88917 1.9-1.6642 2.3234-2.5771-1.3626-1.4667-3.5207-3.4648-5.9676-3.9534z" stroke-width="1.5187" style="paint-order:normal"/></g><path d="m4.973 16.601s0.29364-6.022 4.7516-9.9885c0 0 0.0303-0.99253 0.39378-1.2992 0.68835-0.58068 1.4789-0.98251 2.2307-1.3117 0.48469-0.21222 1.2291 0.26839 1.2291 0.26839 0.68981-0.29284 1.4722-0.54457 2.3343-0.55357 0.18127-0.59141 0.26572-0.9075 0.64969-0.97359 1.0625-0.18289 1.9886-0.21163 2.7898-0.0508 0.46811 0.094 0.5841 0.98236 0.5841 0.98236 1.1496-0.012 1.662 0.21808 2.3833 0.50386 0 0 0.74604-0.49572 1.2352-0.29367 0.75878 0.31342 1.528 0.69866 2.2287 1.2648 0.3701 0.29902 0.35394 1.1943 0.35394 1.1943 4.5583 3.9674 4.6655 9.9876 4.6655 9.9876" fill="#ff0" stroke-linecap="round" stroke-width="1.0558"/><path d="m16.081 3.1673v7.3488s-1.6096 4.1993-5.2082 4.1993h-5.1128" fill="none" stroke-linecap="round" stroke-linejoin="round" stroke-width="1.0558"/><g fill="#ff0" stroke-linecap="round"><path d="m13.567 4.7108v5.1154" stroke-width=".79064"/><path d="m9.862 6.7061v3.5591" stroke-width=".79092"/><path d="m4.0415 18.597 5.4487 5e-5s2.2362 1.3444 3.2024 1.3652l10.521-1e-5c1.0802-0.0254 3.1912-1.3652 3.1912-1.3652h5.4433c0.53596-0.0113 0.47816-1.8072-0.05768-1.7932h-27.742c-0.53604-7e-3 -0.53626 1.7906-0.0065 1.7931z" stroke-linejoin="round" stroke-width="1.0558"/></g><g stroke-linecap="round"><path d="m19.786 3.1674v7.3488s1.4204 4.1993 5.0191 4.1993h5.311" fill="none" stroke-linejoin="round" stroke-width="1.0558"/><path d="m22.3 4.2172v5.6091" fill="#ff0" stroke-width=".79064"/><path d="m26.005 6.3931v3.8722" fill="#ff0" stroke-width=".79064"/></g></g></svg>
